<svg width="1436" height="743" viewBox="0 0 1436 743" fill="none" xmlns="http://www.w3.org/2000/svg">
<g clip-path="url(#clip0_354_1436)">
<rect x="298.5" y="-44.5" width="69" height="69" fill="white" stroke="#FFEDA6"/>
<rect x="368.5" y="-44.5" width="69" height="69" fill="white" stroke="#FFEDA6"/>
<rect x="438.5" y="-44.5" width="69" height="69" fill="white" stroke="#FFEDA6"/>
<rect x="508.5" y="-44.5" width="69" height="69" fill="#FFEDA6" stroke="#FFEDA6"/>
<rect x="578.5" y="-44.5" width="69" height="69" fill="white" stroke="#FFEDA6"/>
<rect x="648.5" y="-44.5" width="69" height="69" fill="white" stroke="#FFEDA6"/>
<rect x="718.5" y="-44.5" width="69" height="69" fill="white" stroke="#FFEDA6"/>
<rect x="788.5" y="-44.5" width="69" height="69" fill="#FFEDA6" stroke="#FFEDA6"/>
<rect x="858.5" y="-44.5" width="69" height="69" fill="white" stroke="#FFEDA6"/>
<rect x="928.5" y="-44.5" width="69" height="69" fill="white" stroke="#FFEDA6"/>
<rect x="998.5" y="-44.5" width="69" height="69" fill="white" stroke="#FFEDA6"/>
<rect x="1068.5" y="-44.5" width="69" height="69" fill="#FFEDA6" stroke="#FFEDA6"/>
<rect x="298.5" y="25.5" width="69" height="69" fill="#FFEDA6" stroke="#FFEDA6"/>
<rect x="368.5" y="25.5" width="69" height="69" fill="white" stroke="#FFEDA6"/>
<rect x="438.5" y="25.5" width="69" height="69" fill="white" stroke="#FFEDA6"/>
<rect x="508.5" y="25.5" width="69" height="69" fill="white" stroke="#FFEDA6"/>
<rect x="578.5" y="25.5" width="69" height="69" fill="white" stroke="#FFEDA6"/>
<rect x="648.5" y="25.5" width="69" height="69" fill="#FFEDA6" stroke="#FFEDA6"/>
<rect x="718.5" y="25.5" width="69" height="69" fill="white" stroke="#FFEDA6"/>
<rect x="788.5" y="25.5" width="69" height="69" fill="white" stroke="#FFEDA6"/>
<rect x="858.5" y="25.5" width="69" height="69" fill="white" stroke="#FFEDA6"/>
<rect x="928.5" y="25.5" width="69" height="69" fill="#FFEDA6" stroke="#FFEDA6"/>
<rect x="998.5" y="25.5" width="69" height="69" fill="white" stroke="#FFEDA6"/>
<rect x="1068.5" y="25.5" width="69" height="69" fill="white" stroke="#FFEDA6"/>
<rect x="298.5" y="95.5" width="69" height="69" fill="white" stroke="#FFEDA6"/>
<rect x="368.5" y="95.5" width="69" height="69" fill="white" stroke="#FFEDA6"/>
<rect x="438.5" y="95.5" width="69" height="69" fill="white" stroke="#FFEDA6"/>
<rect x="508.5" y="95.5" width="69" height="69" fill="#FFEDA6" stroke="#FFEDA6"/>
<rect x="578.5" y="95.5" width="69" height="69" fill="white" stroke="#FFEDA6"/>
<rect x="648.5" y="95.5" width="69" height="69" fill="white" stroke="#FFEDA6"/>
<rect x="718.5" y="95.5" width="69" height="69" fill="white" stroke="#FFEDA6"/>
<rect x="788.5" y="95.5" width="69" height="69" fill="#FFEDA6" stroke="#FFEDA6"/>
<rect x="858.5" y="95.5" width="69" height="69" fill="white" stroke="#FFEDA6"/>
<rect x="928.5" y="95.5" width="69" height="69" fill="white" stroke="#FFEDA6"/>
<rect x="998.5" y="95.5" width="69" height="69" fill="white" stroke="#FFEDA6"/>
<rect x="1068.5" y="95.5" width="69" height="69" fill="#FFEDA6" stroke="#FFEDA6"/>
<rect x="298.5" y="165.5" width="69" height="69" fill="#FFEDA6" stroke="#FFEDA6"/>
<rect x="368.5" y="165.5" width="69" height="69" fill="white" stroke="#FFEDA6"/>
<rect x="438.5" y="165.5" width="69" height="69" fill="white" stroke="#FFEDA6"/>
<rect x="508.5" y="165.5" width="69" height="69" fill="white" stroke="#FFEDA6"/>
<rect x="578.5" y="165.5" width="69" height="69" fill="white" stroke="#FFEDA6"/>
<rect x="648.5" y="165.5" width="69" height="69" fill="#FFEDA6" stroke="#FFEDA6"/>
<rect x="718.5" y="165.5" width="69" height="69" fill="white" stroke="#FFEDA6"/>
<rect x="788.5" y="165.5" width="69" height="69" fill="white" stroke="#FFEDA6"/>
<rect x="858.5" y="165.5" width="69" height="69" fill="white" stroke="#FFEDA6"/>
<rect x="928.5" y="165.5" width="69" height="69" fill="#FFEDA6" stroke="#FFEDA6"/>
<rect x="998.5" y="165.5" width="69" height="69" fill="white" stroke="#FFEDA6"/>
<rect x="1068.5" y="165.5" width="69" height="69" fill="white" stroke="#FFEDA6"/>
<rect x="298.5" y="235.5" width="69" height="69" fill="white" stroke="#FFEDA6"/>
<rect x="368.5" y="235.5" width="69" height="69" fill="white" stroke="#FFEDA6"/>
<rect x="438.5" y="235.5" width="69" height="69" fill="#FFEDA6" stroke="#FFEDA6"/>
<rect x="508.5" y="235.5" width="69" height="69" fill="white" stroke="#FFEDA6"/>
<rect x="578.5" y="235.5" width="69" height="69" fill="white" stroke="#FFEDA6"/>
<rect x="648.5" y="235.5" width="69" height="69" fill="white" stroke="#FFEDA6"/>
<rect x="718.5" y="235.5" width="69" height="69" fill="white" stroke="#FFEDA6"/>
<rect x="788.5" y="235.5" width="69" height="69" fill="#FFEDA6" stroke="#FFEDA6"/>
<rect x="858.5" y="235.5" width="69" height="69" fill="white" stroke="#FFEDA6"/>
<rect x="928.5" y="235.5" width="69" height="69" fill="white" stroke="#FFEDA6"/>
<rect x="998.5" y="235.5" width="69" height="69" fill="white" stroke="#FFEDA6"/>
<rect x="1068.5" y="235.5" width="69" height="69" fill="#FFEDA6" stroke="#FFEDA6"/>
<rect x="298.5" y="305.5" width="69" height="69" fill="#FFEDA6" stroke="#FFEDA6"/>
<rect x="368.5" y="305.5" width="69" height="69" fill="white" stroke="#FFEDA6"/>
<rect x="438.5" y="305.5" width="69" height="69" fill="white" stroke="#FFEDA6"/>
<rect x="508.5" y="305.5" width="69" height="69" fill="white" stroke="#FFEDA6"/>
<rect x="578.5" y="305.5" width="69" height="69" fill="white" stroke="#FFEDA6"/>
<rect x="648.5" y="305.5" width="69" height="69" fill="#FFEDA6" stroke="#FFEDA6"/>
<rect x="718.5" y="305.5" width="69" height="69" fill="white" stroke="#FFEDA6"/>
<rect x="788.5" y="305.5" width="69" height="69" fill="white" stroke="#FFEDA6"/>
<rect x="858.5" y="305.5" width="69" height="69" fill="white" stroke="#FFEDA6"/>
<rect x="928.5" y="305.5" width="69" height="69" fill="#FFEDA6" stroke="#FFEDA6"/>
<rect x="998.5" y="305.5" width="69" height="69" fill="white" stroke="#FFEDA6"/>
<rect x="1068.5" y="305.5" width="69" height="69" fill="white" stroke="#FFEDA6"/>
<rect x="298.5" y="375.5" width="69" height="69" fill="white" stroke="#FFEDA6"/>
<rect x="368.5" y="375.5" width="69" height="69" fill="white" stroke="#FFEDA6"/>
<rect x="438.5" y="375.5" width="69" height="69" fill="white" stroke="#FFEDA6"/>
<rect x="508.5" y="375.5" width="69" height="69" fill="#FFEDA6" stroke="#FFEDA6"/>
<rect x="578.5" y="375.5" width="69" height="69" fill="white" stroke="#FFEDA6"/>
<rect x="648.5" y="375.5" width="69" height="69" fill="white" stroke="#FFEDA6"/>
<rect x="718.5" y="375.5" width="69" height="69" fill="white" stroke="#FFEDA6"/>
<rect x="788.5" y="375.5" width="69" height="69" fill="#FFEDA6" stroke="#FFEDA6"/>
<rect x="858.5" y="375.5" width="69" height="69" fill="white" stroke="#FFEDA6"/>
<rect x="928.5" y="375.5" width="69" height="69" fill="white" stroke="#FFEDA6"/>
<rect x="998.5" y="375.5" width="69" height="69" fill="white" stroke="#FFEDA6"/>
<rect x="1068.5" y="375.5" width="69" height="69" fill="#FFEDA6" stroke="#FFEDA6"/>
<rect x="298.5" y="445.5" width="69" height="69" fill="#FFEDA6" stroke="#FFEDA6"/>
<rect x="368.5" y="445.5" width="69" height="69" fill="white" stroke="#FFEDA6"/>
<rect x="438.5" y="445.5" width="69" height="69" fill="white" stroke="#FFEDA6"/>
<rect x="508.5" y="445.5" width="69" height="69" fill="white" stroke="#FFEDA6"/>
<rect x="578.5" y="445.5" width="69" height="69" fill="white" stroke="#FFEDA6"/>
<rect x="648.5" y="445.5" width="69" height="69" fill="#FFEDA6" stroke="#FFEDA6"/>
<rect x="718.5" y="445.5" width="69" height="69" fill="white" stroke="#FFEDA6"/>
<rect x="788.5" y="445.5" width="69" height="69" fill="white" stroke="#FFEDA6"/>
<rect x="858.5" y="445.5" width="69" height="69" fill="white" stroke="#FFEDA6"/>
<rect x="928.5" y="445.5" width="69" height="69" fill="#FFEDA6" stroke="#FFEDA6"/>
<rect x="998.5" y="445.5" width="69" height="69" fill="white" stroke="#FFEDA6"/>
<rect x="1068.5" y="445.5" width="69" height="69" fill="white" stroke="#FFEDA6"/>
<rect x="298.5" y="515.5" width="69" height="69" fill="white" stroke="#FFEDA6"/>
<rect x="368.5" y="515.5" width="69" height="69" fill="white" stroke="#FFEDA6"/>
<rect x="438.5" y="515.5" width="69" height="69" fill="#FFEDA6" stroke="#FFEDA6"/>
<rect x="508.5" y="515.5" width="69" height="69" fill="white" stroke="#FFEDA6"/>
<rect x="578.5" y="515.5" width="69" height="69" fill="white" stroke="#FFEDA6"/>
<rect x="648.5" y="515.5" width="69" height="69" fill="white" stroke="#FFEDA6"/>
<rect x="718.5" y="515.5" width="69" height="69" fill="white" stroke="#FFEDA6"/>
<rect x="788.5" y="515.5" width="69" height="69" fill="#FFEDA6" stroke="#FFEDA6"/>
<rect x="858.5" y="515.5" width="69" height="69" fill="white" stroke="#FFEDA6"/>
<rect x="928.5" y="515.5" width="69" height="69" fill="white" stroke="#FFEDA6"/>
<rect x="998.5" y="515.5" width="69" height="69" fill="white" stroke="#FFEDA6"/>
<rect x="1068.5" y="515.5" width="69" height="69" fill="#FFEDA6" stroke="#FFEDA6"/>
<rect x="298.5" y="585.5" width="69" height="69" fill="#FFEDA6" stroke="#FFEDA6"/>
<rect x="368.5" y="585.5" width="69" height="69" fill="white" stroke="#FFEDA6"/>
<rect x="438.5" y="585.5" width="69" height="69" fill="white" stroke="#FFEDA6"/>
<rect x="508.5" y="585.5" width="69" height="69" fill="white" stroke="#FFEDA6"/>
<rect x="578.5" y="585.5" width="69" height="69" fill="white" stroke="#FFEDA6"/>
<rect x="648.5" y="585.5" width="69" height="69" fill="#FFEDA6" stroke="#FFEDA6"/>
<rect x="718.5" y="585.5" width="69" height="69" fill="white" stroke="#FFEDA6"/>
<rect x="788.5" y="585.5" width="69" height="69" fill="white" stroke="#FFEDA6"/>
<rect x="858.5" y="585.5" width="69" height="69" fill="white" stroke="#FFEDA6"/>
<rect x="928.5" y="585.5" width="69" height="69" fill="#FFEDA6" stroke="#FFEDA6"/>
<rect x="998.5" y="585.5" width="69" height="69" fill="white" stroke="#FFEDA6"/>
<rect x="1068.5" y="585.5" width="69" height="69" fill="white" stroke="#FFEDA6"/>
<rect x="298.5" y="655.5" width="69" height="69" fill="white" stroke="#FFEDA6"/>
<rect x="368.5" y="655.5" width="69" height="69" fill="white" stroke="#FFEDA6"/>
<rect x="438.5" y="655.5" width="69" height="69" fill="#FFEDA6" stroke="#FFEDA6"/>
<rect x="508.5" y="655.5" width="69" height="69" fill="white" stroke="#FFEDA6"/>
<rect x="578.5" y="655.5" width="69" height="69" fill="white" stroke="#FFEDA6"/>
<rect x="648.5" y="655.5" width="69" height="69" fill="white" stroke="#FFEDA6"/>
<rect x="718.5" y="655.5" width="69" height="69" fill="white" stroke="#FFEDA6"/>
<rect x="788.5" y="655.5" width="69" height="69" fill="#FFEDA6" stroke="#FFEDA6"/>
<rect x="858.5" y="655.5" width="69" height="69" fill="white" stroke="#FFEDA6"/>
<rect x="928.5" y="655.5" width="69" height="69" fill="white" stroke="#FFEDA6"/>
<rect x="998.5" y="655.5" width="69" height="69" fill="white" stroke="#FFEDA6"/>
<rect x="1068.5" y="655.5" width="69" height="69" fill="#FFEDA6" stroke="#FFEDA6"/>
<rect x="298.5" y="725.5" width="69" height="69" fill="#FFEDA6" stroke="#FFEDA6"/>
<rect x="368.5" y="725.5" width="69" height="69" fill="white" stroke="#FFEDA6"/>
<rect x="438.5" y="725.5" width="69" height="69" fill="white" stroke="#FFEDA6"/>
<rect x="508.5" y="725.5" width="69" height="69" fill="white" stroke="#FFEDA6"/>
<rect x="578.5" y="725.5" width="69" height="69" fill="#FFEDA6" stroke="#FFEDA6"/>
<rect x="648.5" y="725.5" width="69" height="69" fill="white" stroke="#FFEDA6"/>
<rect x="718.5" y="725.5" width="69" height="69" fill="white" stroke="#FFEDA6"/>
<rect x="788.5" y="725.5" width="69" height="69" fill="white" stroke="#FFEDA6"/>
<rect x="858.5" y="725.5" width="69" height="69" fill="#FFEDA6" stroke="#FFEDA6"/>
<rect x="928.5" y="725.5" width="69" height="69" fill="white" stroke="#FFEDA6"/>
<rect x="998.5" y="725.5" width="69" height="69" fill="white" stroke="#FFEDA6"/>
<rect x="1068.5" y="725.5" width="69" height="69" fill="white" stroke="#FFEDA6"/>
<circle cx="718" cy="375" r="640" fill="url(#paint0_radial_354_1436)"/>
</g>
<defs>
<radialGradient id="paint0_radial_354_1436" cx="0" cy="0" r="1" gradientUnits="userSpaceOnUse" gradientTransform="translate(718 375) rotate(90) scale(640)">
<stop stop-color="#FBFBFB" stop-opacity="0"/>
<stop offset="0.598958" stop-color="#FBFBFB"/>
</radialGradient>
<clipPath id="clip0_354_1436">
<rect width="1436" height="820" fill="white" transform="translate(0 -77)"/>
</clipPath>
</defs>
</svg>
