<svg width="364" height="280" viewBox="0 0 364 280" fill="none" xmlns="http://www.w3.org/2000/svg">
<g clip-path="url(#clip0_354_1879)">
<rect x="419.5" y="-17.5" width="69" height="69" transform="rotate(90 419.5 -17.5)" fill="white" stroke="#FFEDA6"/>
<rect x="419.5" y="52.5" width="69" height="69" transform="rotate(90 419.5 52.5)" fill="white" stroke="#FFEDA6"/>
<rect x="419.5" y="122.5" width="69" height="69" transform="rotate(90 419.5 122.5)" fill="white" stroke="#FFEDA6"/>
<rect x="419.5" y="192.5" width="69" height="69" transform="rotate(90 419.5 192.5)" fill="#FFEDA6" stroke="#FFEDA6"/>
<rect x="419.5" y="262.5" width="69" height="69" transform="rotate(90 419.5 262.5)" fill="white" stroke="#FFEDA6"/>
<rect x="349.5" y="-17.5" width="69" height="69" transform="rotate(90 349.5 -17.5)" fill="#FFEDA6" stroke="#FFEDA6"/>
<rect x="349.5" y="52.5" width="69" height="69" transform="rotate(90 349.5 52.5)" fill="white" stroke="#FFEDA6"/>
<rect x="349.5" y="122.5" width="69" height="69" transform="rotate(90 349.5 122.5)" fill="white" stroke="#FFEDA6"/>
<rect x="349.5" y="192.5" width="69" height="69" transform="rotate(90 349.5 192.5)" fill="white" stroke="#FFEDA6"/>
<rect x="349.5" y="262.5" width="69" height="69" transform="rotate(90 349.5 262.5)" fill="#FFEDA6" stroke="#FFEDA6"/>
<rect x="279.5" y="-17.5" width="69" height="69" transform="rotate(90 279.5 -17.5)" fill="white" stroke="#FFEDA6"/>
<rect x="279.5" y="52.5" width="69" height="69" transform="rotate(90 279.5 52.5)" fill="#FFEDA6" stroke="#FFEDA6"/>
<rect x="279.5" y="122.5" width="69" height="69" transform="rotate(90 279.5 122.5)" fill="white" stroke="#FFEDA6"/>
<rect x="279.5" y="192.5" width="69" height="69" transform="rotate(90 279.5 192.5)" fill="white" stroke="#FFEDA6"/>
<rect x="279.5" y="262.5" width="69" height="69" transform="rotate(90 279.5 262.5)" fill="white" stroke="#FFEDA6"/>
<rect x="209.5" y="-17.5" width="69" height="69" transform="rotate(90 209.5 -17.5)" fill="white" stroke="#FFEDA6"/>
<rect x="209.5" y="52.5" width="69" height="69" transform="rotate(90 209.5 52.5)" fill="white" stroke="#FFEDA6"/>
<rect x="209.5" y="122.5" width="69" height="69" transform="rotate(90 209.5 122.5)" fill="#FFEDA6" stroke="#FFEDA6"/>
<rect x="209.5" y="192.5" width="69" height="69" transform="rotate(90 209.5 192.5)" fill="white" stroke="#FFEDA6"/>
<rect x="209.5" y="262.5" width="69" height="69" transform="rotate(90 209.5 262.5)" fill="white" stroke="#FFEDA6"/>
<rect x="139.5" y="-17.5" width="69" height="69" transform="rotate(90 139.5 -17.5)" fill="white" stroke="#FFEDA6"/>
<rect x="139.5" y="52.5" width="69" height="69" transform="rotate(90 139.5 52.5)" fill="white" stroke="#FFEDA6"/>
<rect x="139.5" y="122.5" width="69" height="69" transform="rotate(90 139.5 122.5)" fill="white" stroke="#FFEDA6"/>
<rect x="139.5" y="192.5" width="69" height="69" transform="rotate(90 139.5 192.5)" fill="#FFEDA6" stroke="#FFEDA6"/>
<rect x="139.5" y="262.5" width="69" height="69" transform="rotate(90 139.5 262.5)" fill="white" stroke="#FFEDA6"/>
<rect x="69.5" y="-17.5" width="69" height="69" transform="rotate(90 69.5 -17.5)" fill="#FFEDA6" stroke="#FFEDA6"/>
<rect x="69.5" y="52.5" width="69" height="69" transform="rotate(90 69.5 52.5)" fill="white" stroke="#FFEDA6"/>
<rect x="69.5" y="122.5" width="69" height="69" transform="rotate(90 69.5 122.5)" fill="white" stroke="#FFEDA6"/>
<rect x="69.5" y="192.5" width="69" height="69" transform="rotate(90 69.5 192.5)" fill="white" stroke="#FFEDA6"/>
<rect x="69.5" y="262.5" width="69" height="69" transform="rotate(90 69.5 262.5)" fill="#FFEDA6" stroke="#FFEDA6"/>
<circle cx="182" cy="122" r="287" transform="rotate(90 182 122)" fill="url(#paint0_radial_354_1879)"/>
<g filter="url(#filter0_d_354_1879)">
<rect x="210" y="120" width="70" height="70" rx="5" transform="rotate(90 210 120)" fill="#FFCC00"/>
<rect x="209.5" y="120.5" width="69" height="69" rx="4.5" transform="rotate(90 209.5 120.5)" stroke="#FFCC00"/>
</g>
<path d="M178.352 144.911C179.17 144.781 179.728 144.013 179.599 143.194C179.469 142.376 178.701 141.818 177.882 141.947C177.064 142.077 176.506 142.845 176.636 143.664C176.765 144.482 177.533 145.04 178.352 144.911Z" fill="white"/>
<path d="M163.068 144.293C162.675 144.355 162.322 144.571 162.088 144.893C161.855 145.215 161.758 145.617 161.82 146.01C161.883 146.403 162.098 146.755 162.42 146.989C162.742 147.223 163.144 147.319 163.537 147.257L163.068 144.293ZM169.462 146.318C169.855 146.256 170.207 146.04 170.441 145.718C170.675 145.396 170.772 144.994 170.709 144.601C170.647 144.208 170.431 143.856 170.109 143.622C169.787 143.388 169.386 143.292 168.993 143.354L169.462 146.318ZM164.475 153.182C164.082 153.244 163.729 153.46 163.495 153.782C163.262 154.104 163.165 154.506 163.227 154.899C163.29 155.292 163.505 155.644 163.827 155.878C164.149 156.112 164.551 156.208 164.944 156.146L164.475 153.182ZM179.76 153.798C179.957 153.771 180.147 153.704 180.318 153.603C180.49 153.501 180.639 153.366 180.758 153.206C180.877 153.046 180.962 152.863 181.01 152.67C181.057 152.476 181.065 152.275 181.034 152.078C181.003 151.881 180.933 151.692 180.828 151.523C180.723 151.354 180.585 151.207 180.423 151.091C180.26 150.975 180.077 150.893 179.882 150.849C179.688 150.806 179.486 150.801 179.29 150.836L179.76 153.798ZM165.415 159.11C165.022 159.172 164.67 159.388 164.436 159.71C164.202 160.032 164.106 160.434 164.168 160.827C164.23 161.22 164.446 161.572 164.768 161.806C165.09 162.04 165.492 162.136 165.885 162.074L165.415 159.11ZM177.736 160.196C177.934 160.169 178.125 160.103 178.297 160.002C178.469 159.9 178.619 159.766 178.739 159.605C178.858 159.445 178.944 159.262 178.992 159.068C179.04 158.874 179.048 158.673 179.017 158.475C178.986 158.278 178.916 158.089 178.81 157.919C178.705 157.749 178.567 157.602 178.404 157.486C178.241 157.371 178.057 157.289 177.862 157.245C177.666 157.202 177.465 157.198 177.268 157.233L177.738 160.196H177.736ZM187.327 163.23L185.845 163.466L187.327 163.232V163.23ZM190 146V171.5H193V146H190ZM188.5 173H167.5V176H188.5V173ZM167.5 173C167.102 173 166.721 172.842 166.439 172.561C166.158 172.279 166 171.898 166 171.5H163C163 172.693 163.474 173.838 164.318 174.682C165.162 175.526 166.307 176 167.5 176V173ZM190 171.5C190 171.898 189.842 172.279 189.561 172.561C189.279 172.842 188.898 173 188.5 173V176C189.694 176 190.838 175.526 191.682 174.682C192.526 173.838 193 172.693 193 171.5H190ZM188.5 144.5C188.898 144.5 189.279 144.658 189.561 144.939C189.842 145.221 190 145.602 190 146H193C193 144.807 192.526 143.662 191.682 142.818C190.838 141.974 189.694 141.5 188.5 141.5V144.5ZM166 171.5V168.5H163V171.5H166ZM188.5 141.5H184V144.5H188.5V141.5ZM163.537 147.257L169.462 146.318L168.993 143.354L163.068 144.293L163.537 147.257ZM164.944 156.146L179.76 153.798L179.29 150.836L164.475 153.182L164.944 156.146ZM165.883 162.071L177.735 160.194L177.267 157.232L165.414 159.109L165.883 162.071ZM159.4 140.318L180.142 137.035L179.673 134.072L158.931 137.357L159.4 140.318ZM181.858 138.281L185.848 163.466L188.811 162.998L184.821 137.813L181.858 138.281ZM184.6 165.182L163.858 168.467L164.328 171.429L185.068 168.144L184.6 165.182ZM162.142 167.22L158.152 142.034L155.19 142.504L159.18 167.688L162.142 167.22ZM163.858 168.467C163.465 168.529 163.064 168.433 162.742 168.199C162.42 167.965 162.204 167.613 162.142 167.22L159.18 167.688C159.367 168.867 160.014 169.924 160.979 170.626C161.945 171.327 163.149 171.616 164.328 171.429L163.858 168.467ZM185.848 163.466C185.879 163.661 185.871 163.859 185.825 164.051C185.779 164.243 185.695 164.423 185.58 164.583C185.464 164.742 185.318 164.877 185.149 164.98C184.981 165.083 184.795 165.151 184.6 165.182L185.068 168.144C186.247 167.958 187.305 167.311 188.006 166.345C188.708 165.38 188.997 164.175 188.811 162.996L185.848 163.466ZM180.141 137.033C180.533 136.971 180.935 137.067 181.257 137.301C181.578 137.535 181.794 137.887 181.857 138.28L184.819 137.81C184.632 136.632 183.985 135.576 183.019 134.874C182.054 134.173 180.851 133.884 179.673 134.071L180.141 137.033ZM158.931 137.357C158.347 137.449 157.787 137.654 157.283 137.963C156.779 138.271 156.341 138.676 155.993 139.154C155.645 139.632 155.396 140.174 155.257 140.749C155.119 141.323 155.097 141.92 155.19 142.504L158.152 142.034C158.121 141.839 158.129 141.641 158.175 141.449C158.221 141.257 158.305 141.077 158.421 140.917C158.536 140.758 158.683 140.623 158.851 140.52C159.019 140.417 159.205 140.349 159.4 140.318L158.931 137.357Z" fill="white"/>
</g>
<defs>
<filter id="filter0_d_354_1879" x="120" y="100" width="110" height="110" filterUnits="userSpaceOnUse" color-interpolation-filters="sRGB">
<feFlood flood-opacity="0" result="BackgroundImageFix"/>
<feColorMatrix in="SourceAlpha" type="matrix" values="0 0 0 0 0 0 0 0 0 0 0 0 0 0 0 0 0 0 127 0" result="hardAlpha"/>
<feMorphology radius="5" operator="dilate" in="SourceAlpha" result="effect1_dropShadow_354_1879"/>
<feOffset/>
<feGaussianBlur stdDeviation="7.5"/>
<feComposite in2="hardAlpha" operator="out"/>
<feColorMatrix type="matrix" values="0 0 0 0 0.421667 0 0 0 0 0.421667 0 0 0 0 0.421667 0 0 0 0.15 0"/>
<feBlend mode="normal" in2="BackgroundImageFix" result="effect1_dropShadow_354_1879"/>
<feBlend mode="normal" in="SourceGraphic" in2="effect1_dropShadow_354_1879" result="shape"/>
</filter>
<radialGradient id="paint0_radial_354_1879" cx="0" cy="0" r="1" gradientUnits="userSpaceOnUse" gradientTransform="translate(182 122) rotate(90) scale(287)">
<stop stop-color="#FFEDA6" stop-opacity="0"/>
<stop offset="0.598958" stop-color="#FFEDA6"/>
</radialGradient>
<clipPath id="clip0_354_1879">
<rect width="364" height="364" fill="white" transform="translate(364 -60) rotate(90)"/>
</clipPath>
</defs>
</svg>
