<svg width="37" height="36" viewBox="0 0 37 36" fill="none" xmlns="http://www.w3.org/2000/svg">
<path d="M29.4049 7.99507C27.4099 7.06507 25.2499 6.39007 22.9999 6.00007C22.9802 5.99944 22.9606 6.00314 22.9424 6.01092C22.9243 6.01869 22.9081 6.03035 22.8949 6.04507C22.6249 6.54007 22.3099 7.18507 22.0999 7.68007C19.7134 7.32007 17.2864 7.32007 14.8999 7.68007C14.6899 7.17007 14.3749 6.54007 14.0899 6.04507C14.0749 6.01507 14.0299 6.00007 13.9849 6.00007C11.7349 6.39007 9.58993 7.06507 7.57993 7.99507C7.56493 7.99507 7.54993 8.01007 7.53493 8.02507C3.45493 14.1301 2.32993 20.0701 2.88493 25.9501C2.88493 25.9801 2.89993 26.0101 2.92993 26.0251C5.62993 28.0051 8.22493 29.2051 10.7899 30.0001C10.8349 30.0151 10.8799 30.0001 10.8949 29.9701C11.4949 29.1451 12.0349 28.2751 12.4999 27.3601C12.5299 27.3001 12.4999 27.2401 12.4399 27.2251C11.5849 26.8951 10.7749 26.5051 9.97993 26.0551C9.91993 26.0251 9.91993 25.9351 9.96493 25.8901C10.1299 25.7701 10.2949 25.6351 10.4599 25.5151C10.4899 25.4851 10.5349 25.4851 10.5649 25.5001C15.7249 27.8551 21.2899 27.8551 26.3899 25.5001C26.4199 25.4851 26.4649 25.4851 26.4949 25.5151C26.6599 25.6501 26.8249 25.7701 26.9899 25.9051C27.0499 25.9501 27.0499 26.0401 26.9749 26.0701C26.1949 26.5351 25.3699 26.9101 24.5149 27.2401C24.4549 27.2551 24.4399 27.3301 24.4549 27.3751C24.9349 28.2901 25.4749 29.1601 26.0599 29.9851C26.1049 30.0001 26.1499 30.0151 26.1949 30.0001C28.7749 29.2051 31.3699 28.0051 34.0699 26.0251C34.0999 26.0101 34.1149 25.9801 34.1149 25.9501C34.7749 19.1551 33.0199 13.2601 29.4649 8.02507C29.4499 8.01007 29.4349 7.99507 29.4049 7.99507ZM13.2799 22.3651C11.7349 22.3651 10.4449 20.9401 10.4449 19.1851C10.4449 17.4301 11.7049 16.0051 13.2799 16.0051C14.8699 16.0051 16.1299 17.4451 16.1149 19.1851C16.1149 20.9401 14.8549 22.3651 13.2799 22.3651ZM23.7349 22.3651C22.1899 22.3651 20.8999 20.9401 20.8999 19.1851C20.8999 17.4301 22.1599 16.0051 23.7349 16.0051C25.3249 16.0051 26.5849 17.4451 26.5699 19.1851C26.5699 20.9401 25.3249 22.3651 23.7349 22.3651Z" fill="#FBFBFB"/>
</svg>
