<svg width="36" height="36" viewBox="0 0 36 36" fill="none" xmlns="http://www.w3.org/2000/svg">
<path d="M17.9054 5.65454C14.8051 5.65454 12.2918 8.58884 12.2918 12.2085C12.2918 14.7188 13.5007 16.8991 15.2758 17.9999L13.2173 18.9539L7.73937 21.4946C7.21017 21.7592 6.94605 22.2079 6.94605 22.843V28.876C6.98958 29.6303 7.44216 30.3334 8.17593 30.3453H27.6645C28.5022 30.2724 28.926 29.5977 28.9343 28.876V22.843C28.9343 22.2079 28.6702 21.7592 28.141 21.4946L22.8613 18.9539L20.6672 17.9144C22.3695 16.7888 23.519 14.6557 23.519 12.2085C23.519 8.58884 21.0057 5.65454 17.9054 5.65454ZM8.85069 7.95926C7.5165 8.00993 6.45912 8.58725 5.65578 9.50714C4.76718 10.6147 4.33398 11.9296 4.32561 13.2378C4.38018 15.1721 5.24568 17.0033 6.78648 17.9611L0.63489 20.8198C0.2115 20.9786 0 21.349 0 21.9311V26.7731C0.03306 27.4152 0.36648 27.9549 0.99165 27.9642H5.08017V22.843C5.14782 21.4738 5.79078 20.3671 6.94605 19.8271L11.0335 17.8825C11.351 17.6973 11.6554 17.4455 11.9464 17.128C10.2612 14.5277 10.0271 11.4133 11.1133 8.67395C10.4068 8.24162 9.61296 7.96379 8.85069 7.95926ZM27.1083 7.95926C26.2358 7.97753 25.4295 8.29883 24.7671 8.75258C25.8236 11.5167 25.5322 14.6331 23.9726 17.0482C24.3166 17.4451 24.6748 17.7495 25.0452 17.9612L28.9742 19.8271C30.1711 20.4835 30.7883 21.6 30.8002 22.843V27.9642H35.0072C35.6991 27.9045 35.994 27.3526 36 26.7731V21.9312C36 21.4019 35.7885 21.0316 35.3651 20.8198L29.2922 17.9213C30.8671 16.76 31.658 15.0197 31.6733 13.2378C31.6314 11.8274 31.2005 10.5178 30.3431 9.50714C29.4471 8.53517 28.3358 7.96955 27.1083 7.95926Z" fill="#FBFBFB"/>
</svg>
