<svg width="27" height="21" viewBox="0 0 27 21" fill="none" xmlns="http://www.w3.org/2000/svg">
<path d="M0.232955 21V15.2045C0.232955 13.5379 0.545455 11.8049 1.17045 10.0057C1.81439 8.1875 2.68561 6.47348 3.78409 4.86364C4.90152 3.23485 6.15152 1.86174 7.53409 0.744315L12.3068 3.84091C11.1894 5.52651 10.2519 7.28788 9.49432 9.125C8.75568 10.9432 8.39583 12.9508 8.41477 15.1477V21H0.232955ZM14.6364 21V15.2045C14.6364 13.5379 14.9489 11.8049 15.5739 10.0057C16.2178 8.1875 17.089 6.47348 18.1875 4.86364C19.3049 3.23485 20.5549 1.86174 21.9375 0.744315L26.7102 3.84091C25.5928 5.52651 24.6553 7.28788 23.8977 9.125C23.1591 10.9432 22.7992 12.9508 22.8182 15.1477V21H14.6364Z" fill="black"/>
</svg>
