<svg width="524" height="476" viewBox="0 0 524 476" fill="none" xmlns="http://www.w3.org/2000/svg">
<g clip-path="url(#clip0_354_2171)">
<path d="M265.552 118.894H74.0313C61.5691 118.894 51.4666 128.997 51.4666 141.459V330.54C51.4666 343.002 61.5691 353.105 74.0313 353.105H265.552C278.014 353.105 288.116 343.002 288.116 330.54V141.459C288.116 128.997 278.014 118.894 265.552 118.894Z" fill="#F2F2F2"/>
<path d="M114.25 123.535C98.8295 123.535 84.0407 129.66 73.1368 140.564C62.2329 151.468 56.1072 166.257 56.1072 181.677V330.54C56.1072 332.894 56.5708 335.225 57.4716 337.4C58.3724 339.574 59.6926 341.55 61.3571 343.215C63.0215 344.879 64.9975 346.199 67.1721 347.1C69.3468 348.001 71.6776 348.465 74.0314 348.465H196.264C219.394 348.465 241.577 339.276 257.932 322.921C274.287 306.566 283.476 284.383 283.476 261.253V141.459C283.476 136.705 281.587 132.146 278.226 128.784C274.864 125.423 270.305 123.535 265.551 123.535H114.25Z" fill="white"/>
<path d="M496.351 41.5926H18.185C17.9613 41.5926 17.7466 41.5037 17.5884 41.3455C17.4302 41.1873 17.3413 40.9726 17.3413 40.7489C17.3413 40.5251 17.4302 40.3105 17.5884 40.1523C17.7466 39.994 17.9613 39.9052 18.185 39.9052H496.351C496.575 39.9052 496.79 39.994 496.948 40.1523C497.106 40.3105 497.195 40.5251 497.195 40.7489C497.195 40.9726 497.106 41.1873 496.948 41.3455C496.79 41.5037 496.575 41.5926 496.351 41.5926Z" fill="#E6E6E6"/>
<path d="M42.1087 16.2635C46.0493 16.2635 49.2438 12.9978 49.2438 8.96938C49.2438 4.94097 46.0493 1.67529 42.1087 1.67529C38.1681 1.67529 34.9736 4.94097 34.9736 8.96938C34.9736 12.9978 38.1681 16.2635 42.1087 16.2635Z" fill="#E6E6E6"/>
<path d="M66.7571 16.2635C70.6977 16.2635 73.8922 12.9978 73.8922 8.96938C73.8922 4.94097 70.6977 1.67529 66.7571 1.67529C62.8166 1.67529 59.6221 4.94097 59.6221 8.96938C59.6221 12.9978 62.8166 16.2635 66.7571 16.2635Z" fill="#E6E6E6"/>
<path d="M91.4056 16.2635C95.3462 16.2635 98.5407 12.9978 98.5407 8.96938C98.5407 4.94097 95.3462 1.67529 91.4056 1.67529C87.465 1.67529 84.2705 4.94097 84.2705 8.96938C84.2705 12.9978 87.465 16.2635 91.4056 16.2635Z" fill="#E6E6E6"/>
<path d="M119.511 14.7345C119.399 14.7346 119.288 14.7122 119.184 14.6686C119.081 14.6251 118.987 14.5611 118.908 14.4807L114.094 9.55922C113.94 9.40161 113.853 9.18984 113.853 8.96928C113.853 8.74872 113.94 8.53694 114.094 8.37933L118.908 3.45827C118.986 3.37781 119.078 3.31344 119.18 3.26889C119.282 3.22434 119.392 3.20049 119.504 3.19872C119.615 3.19694 119.726 3.21728 119.83 3.25855C119.933 3.29983 120.027 3.36122 120.107 3.43918C120.187 3.51714 120.25 3.61013 120.294 3.71276C120.337 3.81539 120.36 3.92564 120.361 4.03713C120.362 4.14862 120.34 4.25914 120.298 4.3623C120.256 4.46547 120.193 4.55922 120.115 4.63816L115.877 8.96927L120.115 13.3008C120.231 13.4195 120.309 13.5699 120.34 13.733C120.371 13.8962 120.354 14.0648 120.289 14.2179C120.225 14.371 120.117 14.5017 119.978 14.5936C119.84 14.6854 119.678 14.7345 119.511 14.7345Z" fill="#E6E6E6"/>
<path d="M127.601 14.7345C127.435 14.7345 127.273 14.6854 127.135 14.5935C126.996 14.5017 126.888 14.371 126.824 14.2179C126.759 14.0648 126.742 13.8961 126.773 13.733C126.804 13.5699 126.882 13.4195 126.998 13.3008L131.235 8.96927L126.998 4.63816C126.92 4.55922 126.857 4.46546 126.815 4.36229C126.773 4.25913 126.751 4.1486 126.752 4.03711C126.753 3.92562 126.775 3.81538 126.819 3.71275C126.863 3.61011 126.926 3.51713 127.006 3.43917C127.085 3.36121 127.18 3.29981 127.283 3.25854C127.387 3.21727 127.498 3.19694 127.609 3.19872C127.721 3.20049 127.831 3.22434 127.933 3.26889C128.035 3.31344 128.127 3.3778 128.205 3.45826L133.018 8.37932C133.173 8.53693 133.259 8.74871 133.259 8.96927C133.259 9.18983 133.173 9.40161 133.018 9.55922L128.205 14.4807C128.126 14.5611 128.032 14.625 127.929 14.6686C127.825 14.7122 127.714 14.7346 127.601 14.7345Z" fill="#E6E6E6"/>
<path d="M453.71 2.5199H444.758C444.516 2.51983 444.275 2.56758 444.051 2.66041C443.827 2.75324 443.623 2.88934 443.452 3.06094C443.28 3.23253 443.144 3.43625 443.051 3.66047C442.958 3.88468 442.911 4.12499 442.911 4.36766V13.328C442.911 13.5707 442.958 13.811 443.051 14.0352C443.144 14.2595 443.28 14.4632 443.452 14.6348C443.623 14.8064 443.827 14.9425 444.051 15.0353C444.275 15.1281 444.516 15.1759 444.758 15.1758H453.71C454.201 15.1763 454.672 14.982 455.02 14.6356C455.368 14.2893 455.565 13.819 455.567 13.328V4.36766C455.565 3.87669 455.368 3.40645 455.02 3.06006C454.672 2.71368 454.201 2.51943 453.71 2.5199Z" fill="#E6E6E6"/>
<path d="M431.773 2.5199H422.821C422.579 2.51983 422.338 2.56758 422.114 2.66041C421.89 2.75324 421.686 2.88934 421.515 3.06094C421.343 3.23253 421.207 3.43625 421.114 3.66047C421.021 3.88468 420.974 4.12499 420.974 4.36766V13.328C420.974 13.5707 421.021 13.811 421.114 14.0352C421.207 14.2595 421.343 14.4632 421.515 14.6348C421.686 14.8064 421.89 14.9425 422.114 15.0353C422.338 15.1281 422.579 15.1759 422.821 15.1758H431.773C432.264 15.1763 432.735 14.982 433.083 14.6356C433.431 14.2893 433.628 13.819 433.63 13.328V4.36766C433.628 3.87669 433.431 3.40645 433.083 3.06006C432.735 2.71368 432.264 2.51943 431.773 2.5199Z" fill="#E6E6E6"/>
<path d="M474.382 2.94165H465.43C465.187 2.94158 464.947 2.98933 464.723 3.08216C464.498 3.17499 464.295 3.3111 464.123 3.48269C463.952 3.65429 463.815 3.85801 463.723 4.08222C463.63 4.30643 463.582 4.54674 463.582 4.78942V13.7498C463.582 13.9925 463.63 14.2328 463.723 14.457C463.815 14.6812 463.952 14.8849 464.123 15.0565C464.295 15.2281 464.498 15.3642 464.723 15.4571C464.947 15.5499 465.187 15.5976 465.43 15.5976H474.382C474.873 15.598 475.344 15.4038 475.692 15.0574C476.04 14.711 476.236 14.2408 476.238 13.7498V4.78942C476.236 4.29844 476.04 3.8282 475.692 3.48182C475.344 3.13543 474.873 2.94118 474.382 2.94165Z" fill="#E6E6E6"/>
<path d="M294.857 16.0866H236.64C234.626 16.0866 232.695 15.2866 231.27 13.8625C229.846 12.4385 229.046 10.507 229.046 8.49308C229.046 6.47915 229.846 4.54771 231.27 3.12364C232.695 1.69958 234.626 0.899536 236.64 0.899536H294.857C296.871 0.899536 298.803 1.69958 300.227 3.12364C301.651 4.54771 302.451 6.47915 302.451 8.49308C302.451 10.507 301.651 12.4385 300.227 13.8625C298.803 15.2866 296.871 16.0866 294.857 16.0866Z" fill="#E6E6E6"/>
<path d="M199.002 268.698H69.0741C68.331 268.698 67.6183 268.403 67.0929 267.878C66.5674 267.352 66.2722 266.639 66.2722 265.896C66.2722 265.153 66.5674 264.441 67.0929 263.915C67.6183 263.39 68.331 263.094 69.0741 263.094H199.002C199.745 263.094 200.458 263.39 200.983 263.915C201.509 264.441 201.804 265.153 201.804 265.896C201.804 266.639 201.509 267.352 200.983 267.878C200.458 268.403 199.745 268.698 199.002 268.698Z" fill="#F2F2F2"/>
<path d="M199.002 188.778H3.30237C2.93402 188.779 2.56914 188.707 2.22864 188.566C1.88813 188.426 1.57868 188.22 1.31799 187.959C1.05729 187.699 0.850483 187.39 0.70937 187.05C0.568257 186.709 0.495605 186.345 0.495605 185.976C0.495605 185.608 0.568257 185.243 0.70937 184.903C0.850483 184.563 1.05729 184.254 1.31799 183.993C1.57868 183.733 1.88813 183.527 2.22864 183.386C2.56914 183.246 2.93402 183.174 3.30237 183.174H199.002C199.744 183.176 200.456 183.472 200.98 183.997C201.505 184.522 201.799 185.234 201.799 185.976C201.799 186.719 201.505 187.431 200.98 187.956C200.456 188.481 199.744 188.777 199.002 188.778Z" fill="#F2F2F2"/>
<path d="M199.006 208.786H3.29798C2.55513 208.787 1.84317 209.083 1.31835 209.609C0.79354 210.135 0.498779 210.847 0.498779 211.59C0.498779 212.333 0.79354 213.046 1.31835 213.571C1.84317 214.097 2.55513 214.393 3.29798 214.394H199.006C199.749 214.393 200.461 214.097 200.986 213.571C201.51 213.046 201.805 212.333 201.805 211.59C201.805 210.847 201.51 210.135 200.986 209.609C200.461 209.083 199.749 208.787 199.006 208.786Z" fill="#F2F2F2"/>
<path d="M199.002 240.01H3.30239C2.55928 240.01 1.8466 239.715 1.32115 239.189C0.795687 238.664 0.500488 237.951 0.500488 237.208C0.500488 236.465 0.795687 235.752 1.32115 235.227C1.8466 234.701 2.55928 234.406 3.30239 234.406H199.002C199.745 234.406 200.458 234.701 200.983 235.227C201.509 235.752 201.804 236.465 201.804 237.208C201.804 237.951 201.509 238.664 200.983 239.189C200.458 239.715 199.745 240.01 199.002 240.01Z" fill="#F2F2F2"/>
<path d="M363.794 463.865L354.809 463.864L350.536 429.209L363.796 429.21L363.794 463.865Z" fill="#A0616A"/>
<path d="M364.11 473.238L336.481 473.236V472.887C336.482 470.035 337.615 467.3 339.631 465.283C341.648 463.267 344.383 462.134 347.235 462.133L352.283 458.305L361.699 462.134L364.11 462.134L364.11 473.238Z" fill="#2F2E41"/>
<path d="M454.193 463.865L445.209 463.864L440.935 429.209L454.196 429.21L454.193 463.865Z" fill="#A0616A"/>
<path d="M454.51 473.238L426.882 473.236V472.887C426.882 470.035 428.015 467.3 430.032 465.283C432.048 463.267 434.783 462.134 437.635 462.133L442.683 458.305L452.099 462.134L454.511 462.134L454.51 473.238Z" fill="#2F2E41"/>
<path d="M371.124 264.774C371.124 264.774 365.224 271.036 364.975 275.099C364.725 279.161 367.8 271.782 364.725 279.161C361.651 286.541 361.651 281.621 361.651 286.541C361.651 291.461 355.135 296.265 355.135 296.265L344.391 340.47L350.581 443.973H364.11C376.683 405.647 382.533 376.05 375.795 362.797L394.583 321.036C394.583 321.036 430.086 432.13 431.536 433.439C432.987 434.748 432.987 432.903 432.987 434.748C432.987 436.593 431.142 434.748 432.987 436.593L441.596 445.202L454.511 443.973C454.511 443.973 456.239 363.54 441.845 349.639C441.845 349.639 445.169 306.593 441.845 306.714C438.521 306.835 438.521 312.37 438.521 306.835C438.521 301.3 442.46 299.823 442.46 299.823L431.391 260.947L371.124 264.774Z" fill="#2F2E41"/>
<path d="M440.835 179.082L428.331 231.435L431.284 250.909L434.828 274.238L422.577 273.445L403.618 272.213L368.418 269.935L365.338 166.62L381.487 149.746L384.373 141.553L407.719 141.41L413.304 151.248L427.664 155.331C429.51 156.502 431.244 157.841 432.845 159.33C436.388 162.613 439.527 166.781 440.995 171.05C441.438 172.294 441.718 173.59 441.831 174.906L440.835 179.082Z" fill="#E6E6E6"/>
<path d="M332.165 311.916C333.105 311.396 333.922 310.678 334.558 309.812C335.194 308.945 335.634 307.951 335.848 306.897C336.062 305.844 336.044 304.757 335.796 303.711C335.549 302.665 335.077 301.685 334.413 300.84L352.222 268.419L344.465 261.288L323.595 299.95C322.255 301.172 321.41 302.844 321.22 304.649C321.03 306.453 321.509 308.264 322.565 309.739C323.621 311.214 325.182 312.251 326.951 312.652C328.72 313.053 330.576 312.791 332.165 311.916Z" fill="#E6E6E6"/>
<path d="M375.599 160.304L371.448 234.666L351.45 281.397L338.433 298.659L339.913 290.837L330.94 286.348L330.098 285.929L347.323 219.083L348.91 193.106C349.183 188.636 350.382 184.271 352.429 180.288C354.476 176.305 357.328 172.79 360.803 169.965L370.766 161.872L375.599 160.304Z" fill="#E6E6E6"/>
<path d="M332.165 311.916C333.105 311.396 333.922 310.678 334.558 309.812C335.194 308.945 335.634 307.951 335.848 306.897C336.062 305.844 336.044 304.757 335.796 303.711C335.549 302.665 335.077 301.685 334.413 300.84L352.222 268.419L344.465 261.288L323.595 299.95C322.255 301.172 321.41 302.844 321.22 304.649C321.03 306.453 321.509 308.264 322.565 309.739C323.621 311.214 325.182 312.251 326.951 312.652C328.72 313.053 330.576 312.791 332.165 311.916Z" fill="#A0616A"/>
<path d="M375.599 160.304L371.448 234.666L351.45 281.397L338.433 298.659L339.913 290.837L330.94 286.348L330.098 285.929L347.323 219.083L348.91 193.106C349.183 188.636 350.382 184.271 352.429 180.288C354.476 176.305 357.328 172.79 360.803 169.965L370.766 161.872L375.599 160.304Z" fill="#E6E6E6"/>
<path d="M394.874 162.868H203.354C190.892 162.868 180.789 172.97 180.789 185.432V284.235C180.789 296.697 190.892 306.8 203.354 306.8H394.874C407.337 306.8 417.439 296.697 417.439 284.235V185.432C417.439 172.97 407.337 162.868 394.874 162.868Z" fill="white"/>
<path d="M394.875 307.643H203.354C197.148 307.636 191.198 305.168 186.81 300.779C182.421 296.391 179.953 290.441 179.946 284.235V185.432C179.953 179.226 182.421 173.276 186.81 168.888C191.198 164.499 197.148 162.031 203.354 162.024H394.875C401.081 162.031 407.031 164.499 411.419 168.888C415.807 173.276 418.276 179.226 418.283 185.432V284.235C418.276 290.441 415.807 296.391 411.419 300.779C407.031 305.168 401.081 307.636 394.875 307.643ZM203.354 163.711C197.594 163.711 192.069 166 187.995 170.073C183.922 174.147 181.633 179.672 181.633 185.432V222.362C181.633 244.532 190.44 265.795 206.117 281.472C221.794 297.149 243.057 305.956 265.227 305.956H394.875C400.635 305.956 406.16 303.668 410.233 299.594C414.307 295.521 416.595 289.996 416.595 284.235V185.432C416.595 182.58 416.033 179.755 414.942 177.12C413.85 174.485 412.25 172.09 410.233 170.073C408.216 168.056 405.822 166.456 403.187 165.365C400.551 164.273 397.727 163.711 394.874 163.711L203.354 163.711Z" fill="#F7C875"/>
<path d="M253.975 267.739H209.257C207.626 267.739 206.304 269.061 206.304 270.692C206.304 272.323 207.626 273.645 209.257 273.645H253.975C255.606 273.645 256.928 272.323 256.928 270.692C256.928 269.061 255.606 267.739 253.975 267.739Z" fill="#FFCC00"/>
<path d="M388.971 259.724H357.753C356.122 259.724 354.8 261.046 354.8 262.677V278.708C354.8 280.338 356.122 281.661 357.753 281.661H388.971C390.602 281.661 391.924 280.338 391.924 278.708V262.677C391.924 261.046 390.602 259.724 388.971 259.724Z" fill="#FFCC00"/>
<path d="M221.491 218.381C229.879 218.381 236.678 211.581 236.678 203.194C236.678 194.806 229.879 188.007 221.491 188.007C213.104 188.007 206.304 194.806 206.304 203.194C206.304 211.581 213.104 218.381 221.491 218.381Z" fill="#FFCC00"/>
<path d="M395.193 137.062C405.725 137.062 414.262 128.524 414.262 117.992C414.262 107.46 405.725 98.9222 395.193 98.9222C384.661 98.9222 376.123 107.46 376.123 117.992C376.123 128.524 384.661 137.062 395.193 137.062Z" fill="#A0616A"/>
<path d="M410.837 127.848C410.986 128.988 408.925 129.108 408.46 128.057C407.996 127.007 408.598 125.816 409.185 124.827L410.545 122.534C410.801 122.102 410.95 121.615 410.98 121.113C411.01 120.612 410.92 120.111 410.716 119.651C410.513 119.192 410.203 118.788 409.812 118.473C409.421 118.157 408.961 117.94 408.469 117.839C409.714 115.04 408.363 111.545 405.883 109.747C403.403 107.948 399.712 111.313 396.704 111.891C393.695 112.468 391.286 110.165 388.543 111.53L390.191 107.732L381.07 111.661L383.189 107.388C380.887 107.513 379.907 110.317 379.448 112.576C378.96 114.983 377.677 117.993 375.06 117.494C374.44 117.355 373.871 117.045 373.419 116.597C372.967 116.15 372.651 115.584 372.507 114.964C370.485 107.167 376.356 98.6435 384.138 97.276C384.971 94.9782 386.517 93.0073 388.551 91.652C390.584 90.2967 392.999 89.6282 395.44 89.7444C397.881 89.8606 400.221 90.7555 402.116 92.2979C404.012 93.8403 405.364 95.9492 405.975 98.3157L408.526 95.1917L409.024 99.6181C410.857 99.4232 412.59 100.718 413.481 102.332C414.372 103.947 413.951 106.031 414.806 107.664C418.641 114.985 417.372 123.227 411.451 128.842" fill="#2F2E41"/>
<path d="M477.72 460.476C478.113 460.494 478.501 460.391 478.833 460.181C479.164 459.971 479.423 459.664 479.575 459.302C479.726 458.94 479.763 458.54 479.679 458.156C479.596 457.773 479.396 457.424 479.108 457.158L478.977 456.636C478.994 456.594 479.011 456.552 479.029 456.511C479.424 455.578 480.086 454.782 480.932 454.224C481.778 453.666 482.77 453.37 483.783 453.374C484.796 453.377 485.786 453.68 486.628 454.245C487.469 454.809 488.126 455.61 488.514 456.546C490.065 460.282 492.04 464.025 492.526 467.975C492.74 469.721 492.65 471.491 492.259 473.207C495.903 465.259 497.795 456.62 497.807 447.877C497.808 445.683 497.686 443.491 497.442 441.311C497.24 439.523 496.96 437.748 496.602 435.986C494.65 426.426 490.457 417.465 484.368 409.84C481.422 408.232 479.038 405.759 477.54 402.755C476.997 401.675 476.614 400.523 476.401 399.333C476.734 399.377 477.655 394.314 477.404 394.003C477.867 393.3 478.696 392.951 479.202 392.265C481.718 388.853 485.185 389.449 486.995 394.085C490.861 396.036 490.899 399.272 488.526 402.385C487.017 404.365 486.81 407.044 485.486 409.164C485.622 409.338 485.763 409.507 485.9 409.682C488.39 412.884 490.561 416.323 492.38 419.949C491.938 415.887 492.466 411.778 493.921 407.959C495.396 404.401 498.161 401.404 500.596 398.328C501.24 397.502 502.114 396.885 503.108 396.556C504.103 396.226 505.173 396.199 506.183 396.477C507.193 396.756 508.097 397.327 508.782 398.12C509.468 398.912 509.902 399.89 510.032 400.93C510.037 400.975 510.042 401.021 510.046 401.066C509.685 401.27 509.331 401.486 508.985 401.715C508.549 402.006 508.212 402.422 508.017 402.907C507.822 403.393 507.778 403.926 507.892 404.437C508.005 404.948 508.27 405.412 508.652 405.77C509.033 406.128 509.514 406.362 510.032 406.442L510.085 406.45C509.956 407.753 509.728 409.045 509.403 410.314C512.527 422.392 505.784 426.792 496.156 426.989C495.943 427.098 495.736 427.207 495.523 427.311C497.352 432.492 498.498 437.888 498.935 443.365C499.182 446.596 499.167 449.842 498.891 453.071L498.908 452.956C499.605 449.366 501.52 446.126 504.33 443.785C508.503 440.357 514.398 439.095 518.9 436.339C519.378 436.032 519.934 435.868 520.503 435.867C521.071 435.865 521.628 436.027 522.108 436.332C522.588 436.636 522.971 437.072 523.211 437.587C523.452 438.102 523.54 438.676 523.465 439.239L523.447 439.36C522.776 439.633 522.122 439.948 521.49 440.302C521.129 440.506 520.775 440.723 520.429 440.952C519.993 441.243 519.656 441.658 519.461 442.144C519.266 442.629 519.223 443.162 519.336 443.673C519.449 444.184 519.714 444.649 520.096 445.007C520.477 445.365 520.958 445.599 521.476 445.678L521.529 445.687C521.567 445.692 521.6 445.697 521.638 445.703C520.491 448.441 518.882 450.961 516.88 453.152C514.927 463.697 506.539 464.697 497.567 461.626H497.562C496.577 465.904 495.151 470.068 493.305 474.051H478.101C478.047 473.882 477.998 473.708 477.949 473.539C479.356 473.627 480.769 473.543 482.156 473.288C481.028 471.904 479.9 470.509 478.772 469.125C478.746 469.099 478.723 469.072 478.701 469.043C478.129 468.335 477.551 467.632 476.979 466.923L476.978 466.923C476.948 464.751 477.198 462.584 477.72 460.476Z" fill="#F2F2F2"/>
<path d="M242.699 474.096C242.699 474.228 242.724 474.359 242.775 474.481C242.825 474.603 242.899 474.714 242.992 474.807C243.086 474.901 243.196 474.975 243.318 475.025C243.44 475.075 243.571 475.101 243.703 475.1H522.378C522.644 475.1 522.9 474.995 523.088 474.806C523.276 474.618 523.382 474.363 523.382 474.096C523.382 473.83 523.276 473.575 523.088 473.386C522.9 473.198 522.644 473.092 522.378 473.092H243.703C243.571 473.092 243.44 473.118 243.318 473.168C243.196 473.218 243.085 473.292 242.992 473.386C242.899 473.479 242.825 473.59 242.775 473.712C242.724 473.834 242.699 473.964 242.699 474.096Z" fill="#CCCCCC"/>
<path d="M403.315 307.404C404.236 306.851 405.027 306.104 405.632 305.215C406.236 304.327 406.641 303.317 406.817 302.257C406.993 301.197 406.937 300.111 406.653 299.074C406.368 298.038 405.861 297.076 405.168 296.254L421.814 263.221L413.809 256.37L394.326 295.749C393.03 297.019 392.244 298.719 392.119 300.529C391.993 302.339 392.536 304.132 393.644 305.569C394.752 307.006 396.348 307.986 398.131 308.324C399.913 308.662 401.758 308.335 403.315 307.404Z" fill="#A0616A"/>
<path d="M440.995 171.05L441.83 174.906L439.831 228.803L431.284 250.909L422.576 273.445L421.505 276.22L409.111 293.93L410.309 286.058L401.18 281.89L400.327 281.511L403.618 272.213L411.186 250.85L414.46 241.602L415.169 214.088L415.827 188.076C415.941 183.599 416.983 179.195 418.887 175.142C420.791 171.088 423.516 167.474 426.888 164.528L432.845 159.33C436.388 162.613 439.527 166.781 440.995 171.05Z" fill="#E6E6E6"/>
<path d="M241.867 305.694L202.315 304.85C197.395 304.843 192.678 302.885 189.2 299.405C185.721 295.925 183.765 291.208 183.759 286.288L182.072 244.935C186.929 278.649 205.592 300.035 241.867 305.694Z" fill="#FFCC00"/>
</g>
<defs>
<clipPath id="clip0_354_2171">
<rect width="523" height="474.201" fill="white" transform="translate(0.5 0.899536)"/>
</clipPath>
</defs>
</svg>
