<svg width="520" height="385" viewBox="0 0 520 385" fill="none" xmlns="http://www.w3.org/2000/svg">
<g clip-path="url(#clip0_354_2238)">
<path d="M369.1 282.236H89.073C86.5779 282.233 84.1858 281.24 82.4215 279.476C80.6572 277.712 79.6648 275.32 79.6619 272.824V44.8095C79.6648 42.3144 80.6572 39.9224 82.4215 38.1581C84.1858 36.3938 86.5779 35.4013 89.073 35.3984H369.1C371.595 35.4013 373.987 36.3938 375.751 38.1581C377.516 39.9224 378.508 42.3144 378.511 44.8095V272.824C378.508 275.32 377.516 277.712 375.751 279.476C373.987 281.24 371.595 282.233 369.1 282.236Z" fill="#E6E6E6"/>
<path d="M95.4224 42.0972C93.019 42.1 90.7148 43.056 89.0153 44.7555C87.3158 46.4551 86.3599 48.7593 86.3572 51.1628V266.477C86.36 268.88 87.316 271.184 89.0155 272.884C90.7149 274.583 93.0191 275.539 95.4224 275.542H287.09C309.553 275.516 331.089 266.582 346.973 250.698C362.857 234.814 371.792 213.278 371.817 190.814V51.1628C371.815 48.7593 370.859 46.4551 369.159 44.7555C367.46 43.056 365.156 42.1 362.752 42.0972L95.4224 42.0972Z" fill="white"/>
<path d="M318.037 138.933H267.261C266.202 138.932 265.187 138.511 264.438 137.762C263.689 137.013 263.268 135.998 263.267 134.939V109.667C263.268 108.608 263.689 107.593 264.438 106.844C265.187 106.095 266.202 105.674 267.261 105.673H318.037C319.096 105.674 320.111 106.095 320.86 106.844C321.609 107.593 322.03 108.608 322.031 109.667C325.173 118.61 325.619 127.108 322.031 134.939C322.03 135.998 321.609 137.013 320.86 137.762C320.111 138.511 319.096 138.932 318.037 138.933Z" fill="#E6E6E6"/>
<path d="M312.022 136.491H268.883C267.983 136.49 267.12 136.132 266.484 135.496C265.848 134.86 265.49 133.997 265.489 133.098V111.626C265.49 110.727 265.848 109.864 266.484 109.228C267.12 108.592 267.983 108.234 268.883 108.233H312.022C312.921 108.234 313.784 108.592 314.42 109.228C315.056 109.864 315.414 110.727 315.415 111.626C318.327 119.273 318.795 126.509 315.415 133.098C315.414 133.997 315.056 134.86 314.42 135.496C313.784 136.132 312.921 136.49 312.022 136.491Z" fill="white"/>
<path d="M309.695 152.172H275.491C274.484 152.173 273.519 151.775 272.806 151.065C272.093 150.354 271.692 149.39 271.69 148.384C271.688 147.378 272.086 146.412 272.796 145.699C273.506 144.986 274.47 144.584 275.476 144.582H309.695C310.7 144.584 311.664 144.985 312.374 145.696C313.084 146.408 313.483 147.372 313.483 148.377C313.483 149.382 313.084 150.346 312.374 151.058C311.664 151.769 310.7 152.17 309.695 152.172Z" fill="#E6E6E6"/>
<path d="M286.698 114.03C286.304 114.032 285.927 114.189 285.649 114.467C285.371 114.746 285.214 115.123 285.214 115.516V131.602C285.214 131.862 285.282 132.117 285.411 132.342C285.541 132.567 285.727 132.754 285.952 132.885C286.176 133.015 286.431 133.084 286.691 133.086C286.951 133.087 287.206 133.019 287.432 132.891L301.63 124.795C301.858 124.665 302.048 124.477 302.179 124.25C302.311 124.023 302.38 123.765 302.379 123.502C302.379 123.24 302.308 122.982 302.175 122.756C302.042 122.529 301.852 122.342 301.623 122.214L287.426 114.223C287.204 114.097 286.953 114.031 286.698 114.03Z" fill="#E6E6E6"/>
<path d="M493.835 353.925C493.052 352.929 491.988 352.191 490.782 351.805C489.575 351.42 488.281 351.404 487.065 351.761L486.799 351.84L484.415 361.147C484.058 359.76 483.294 356.629 482.812 353.564L482.771 353.31L482.534 353.414C480.042 354.516 477.699 355.928 475.561 357.617C471.773 360.656 468.692 364.482 466.533 368.832C464.373 373.181 463.187 377.948 463.056 382.802L463.052 382.981L463.047 383.093L463.363 382.981L470.137 380.559C473.136 380.824 476.156 380.415 478.977 379.363C481.798 378.311 484.348 376.643 486.442 374.479C489.179 371.593 491.056 367.88 492.871 364.287C493.403 363.241 493.947 362.161 494.503 361.123C495.124 359.993 495.392 358.704 495.273 357.421C495.154 356.138 494.653 354.92 493.835 353.925Z" fill="#F2F2F2"/>
<path d="M320.851 116.578C320.987 117.282 321.276 117.949 321.697 118.529C322.119 119.11 322.662 119.592 323.29 119.94C323.917 120.288 324.613 120.494 325.329 120.544C326.045 120.594 326.763 120.487 327.433 120.229L347.677 143.78L350.24 135.086L330.17 113.54C329.662 112.443 328.771 111.571 327.663 111.088C326.556 110.605 325.31 110.545 324.161 110.92C323.012 111.294 322.041 112.077 321.431 113.12C320.821 114.163 320.615 115.393 320.851 116.578Z" fill="#FFB8B8"/>
<path d="M402.442 377.351H395.742L392.555 351.509H402.443L402.442 377.351Z" fill="#FFB6B6"/>
<path d="M402.263 375.162L395.11 372.253L394.905 372.169L390.956 375.162C388.726 375.163 386.587 376.049 385.011 377.626C383.434 379.202 382.548 381.341 382.547 383.571V383.844H404.149V375.162H402.263Z" fill="#2F2E41"/>
<path d="M450.236 377.351H443.536L440.349 351.509H450.237L450.236 377.351Z" fill="#FFB6B6"/>
<path d="M450.057 375.162L442.904 372.253L442.699 372.169L438.749 375.162C436.519 375.163 434.381 376.049 432.804 377.626C431.227 379.202 430.341 381.341 430.341 383.571V383.844H451.942V375.162H450.057Z" fill="#2F2E41"/>
<path d="M434.423 223.035C434.423 223.035 442.827 231.777 442.827 238.96C442.827 246.144 440.726 256.007 442.827 258.165C444.927 260.324 447.553 262.95 444.402 266.101C441.251 269.252 439.675 270.828 441.776 272.929C443.877 275.03 442.827 311.794 442.827 311.794L453.856 361.163H439.961L422.344 311.794L417.617 270.828L402.33 310.218L404.018 361.586L389.492 361.163L383.479 306.542C383.479 306.542 392.407 254.584 390.832 253.252C389.256 251.921 390.832 249.233 390.832 249.233L395.033 229.337L434.423 223.035Z" fill="#2F2E41"/>
<path d="M417.971 161.051C417.971 161.051 420.828 149.791 407.664 146.563C394.5 143.335 356.871 139.188 356.871 139.188L337.855 119.009L331.411 128.367L352.729 154.858L403.241 165.233L417.971 161.051Z" fill="#3F3D56"/>
<path d="M334.543 127.677C335.134 126.912 335.596 126.056 335.911 125.142L338.638 118.441L337.93 118.411C336.951 118.227 335.943 118.252 334.974 118.484C334.005 118.716 333.095 119.151 332.306 119.759C331.516 120.367 330.864 121.136 330.391 122.013C329.919 122.891 329.638 123.859 329.566 124.853C329.477 125.713 329.631 126.581 330.012 127.357C330.206 127.742 330.488 128.076 330.835 128.331C331.183 128.585 331.586 128.754 332.011 128.824C332.494 128.849 332.976 128.759 333.417 128.559C333.858 128.359 334.244 128.057 334.543 127.677Z" fill="#E6E6E6"/>
<path d="M392.352 232.02L390.776 243.442C390.776 243.442 393.927 246.826 395.503 246.403C397.078 245.98 402.856 243.518 402.856 243.518C402.856 243.518 409.683 247.249 413.36 247.672C417.036 248.095 436.468 245.557 436.994 244.288C437.519 243.019 443.623 238.051 443.623 238.051L441.195 223.56L392.352 232.02Z" fill="#E6E6E6"/>
<path d="M443.522 192.064C443.522 192.064 442.188 203.077 443.238 204.091C444.289 205.099 442.188 211.48 440.087 215.682C437.986 219.883 441.663 220.409 441.663 223.56C441.663 226.711 443.238 238.266 443.238 238.266C443.238 238.266 426.957 239.316 424.331 236.69C421.705 234.064 417.503 236.165 411.726 241.942C405.949 247.719 393.402 242.992 390.776 240.366C388.15 237.74 392.819 228.287 394.394 226.454C395.97 224.621 392.877 226.743 391.301 220.934C389.725 215.125 392.819 215.682 395.445 213.056C398.071 210.43 395.445 205.703 393.344 200.976C391.243 196.249 392.819 161.061 392.819 152.658C392.819 144.254 404.373 143.204 404.373 143.204L408.948 137.453L412.309 133.225L418.895 132.963L419.068 132.957L425.439 132.7L428.532 136.303L435.36 144.254L443.238 145.83C449.541 147.931 447.965 161.061 447.965 161.061L443.522 192.064Z" fill="#3F3D56"/>
<path d="M418.57 130.684C426.026 130.684 432.071 124.64 432.071 117.184C432.071 109.728 426.026 103.683 418.57 103.683C411.114 103.683 405.07 109.728 405.07 117.184C405.07 124.64 411.114 130.684 418.57 130.684Z" fill="#FFB6B6"/>
<path d="M434.224 112.642C430.51 110.365 430.986 104.411 427.408 102.331C425.63 101.306 423.63 100.726 421.58 100.64C419.529 100.554 417.488 100.964 415.63 101.837C413.11 100.759 410.091 101.619 408.075 103.566C406.059 105.513 404.967 108.385 404.646 111.273C404.413 114.175 404.622 117.095 405.264 119.935C405.464 118.794 405.664 117.653 405.864 116.512L416.507 114.186C415.565 115.033 414.623 115.879 413.681 116.726C418.501 117.823 423.558 117.032 427.813 114.516C432.447 116.593 431.607 121.257 427.54 127.448C429.116 130.074 438.454 115.237 434.224 112.642Z" fill="#2F2E41"/>
<path d="M428.533 136.303C428.502 136.328 428.471 136.35 428.438 136.371C427.325 137.035 426.052 137.38 424.756 137.369C423.061 137.511 421.377 136.983 420.066 135.899C419.378 135.247 416.642 136.623 414.846 137.385C412.962 138.166 410.849 138.19 408.948 137.453L412.309 133.225L417.849 131.997H419.232L425.439 132.7L428.533 136.303Z" fill="#E6E6E6"/>
<path d="M519.181 384.489L331.256 384.701C331.148 384.702 331.041 384.681 330.941 384.64C330.841 384.599 330.75 384.539 330.673 384.463C330.596 384.387 330.535 384.296 330.493 384.197C330.451 384.097 330.429 383.99 330.429 383.882C330.428 383.774 330.449 383.667 330.49 383.567C330.531 383.466 330.591 383.375 330.667 383.299C330.743 383.222 330.833 383.161 330.933 383.119C331.033 383.077 331.14 383.055 331.248 383.054H331.256L519.181 382.842C519.399 382.843 519.607 382.93 519.761 383.084C519.914 383.239 520 383.448 520 383.665C520 383.883 519.914 384.092 519.761 384.246C519.607 384.4 519.399 384.487 519.181 384.489Z" fill="#CACACA"/>
<path d="M294.167 107.967H292.784V9.04736H347.178V10.4304H294.167V107.967Z" fill="#3F3D56"/>
<path d="M389.481 0.298828H352.83C350.446 0.298828 348.159 1.24598 346.473 2.93193C344.787 4.61787 343.84 6.9045 343.84 9.28878C343.84 11.6731 344.787 13.9597 346.473 15.6456C348.159 17.3316 350.446 18.2787 352.83 18.2787H389.481C391.865 18.2787 394.152 17.3316 395.838 15.6456C397.524 13.9597 398.471 11.6731 398.471 9.28878C398.471 6.9045 397.524 4.61787 395.838 2.93193C394.152 1.24598 391.865 0.298828 389.481 0.298828Z" fill="#FFCC00"/>
<path d="M292.673 117.016C297.236 117.016 300.934 113.318 300.934 108.755C300.934 104.193 297.236 100.494 292.673 100.494C288.111 100.494 284.412 104.193 284.412 108.755C284.412 113.318 288.111 117.016 292.673 117.016Z" fill="#FFCC00"/>
<path d="M193.126 139.797L229.367 131.41L239.769 129.003C241.071 128.702 240.53 126.699 239.228 127L202.988 135.386L192.585 137.794C191.284 138.095 191.825 140.098 193.126 139.797Z" fill="#F2F2F2"/>
<path d="M230.55 117.957L249.95 126.881C250.613 127.11 251.233 127.446 251.786 127.875C252.322 128.399 251.932 128.904 251.495 129.361C250.189 130.58 248.81 131.719 247.366 132.769L239.1 139.489C238.062 140.333 239.527 141.805 240.554 140.969L247.753 135.116L251.353 132.19C252.373 131.361 253.614 130.515 254.024 129.194C254.885 126.419 251.487 125.316 249.599 124.447L241.15 120.561L231.606 116.17C230.403 115.617 229.337 117.399 230.55 117.957Z" fill="#F2F2F2"/>
<path d="M498.279 185.895C494.823 183.552 490.624 182.681 486.52 182.386C481.855 182.132 477.179 182.137 472.515 182.402C467.67 182.594 462.834 182.945 458.009 183.454C453.19 183.964 448.392 184.632 443.613 185.459C439.335 186.125 435.102 187.051 430.937 188.233C426.994 189.325 423.281 191.118 419.975 193.527C417.073 195.71 414.841 198.663 413.533 202.05C412.249 205.227 412.031 208.735 412.911 212.047C413.38 213.656 414.183 215.147 415.267 216.425C416.521 217.826 418.006 219.002 419.657 219.901C423.086 221.858 426.971 223.036 430.072 225.542C430.89 226.198 431.635 226.939 432.295 227.753C432.744 228.383 433.364 228.87 434.082 229.158C434.762 229.395 435.497 229.426 436.194 229.247C436.892 229.067 437.521 228.685 438.001 228.149C438.623 227.299 439.14 226.378 439.544 225.406L441.18 222.25C441.29 221.973 441.427 221.709 441.589 221.461C441.712 221.314 441.493 221.464 441.534 221.425C441.557 221.404 441.605 221.405 441.631 221.388C441.766 221.32 441.908 221.266 442.053 221.226C443.567 220.649 445.087 220.09 446.614 219.549C452.249 217.541 457.952 215.689 463.746 214.19C466.727 213.39 469.751 212.758 472.802 212.295C476.755 211.732 480.767 211.798 484.738 211.413C489.013 210.998 493.424 210.133 497.09 207.779C500.121 205.937 502.457 203.142 503.73 199.832C504.282 198.254 504.472 196.572 504.284 194.911C503.808 191.153 501.352 187.979 498.279 185.895Z" fill="#E6E6E6"/>
<path d="M491.205 188.007C488.082 185.889 484.288 185.103 480.579 184.836C476.363 184.606 472.138 184.611 467.923 184.851C463.544 185.024 459.175 185.341 454.814 185.801C450.46 186.262 446.123 186.866 441.805 187.613C437.939 188.214 434.114 189.052 430.35 190.12C426.787 191.106 423.431 192.726 420.444 194.904C417.821 196.876 415.804 199.544 414.623 202.606C413.462 205.477 413.265 208.647 414.06 211.64C414.484 213.093 415.21 214.441 416.19 215.596C417.323 216.862 418.665 217.925 420.157 218.737C423.256 220.506 426.766 221.57 429.568 223.835C430.307 224.427 430.981 225.097 431.578 225.833C431.983 226.402 432.543 226.842 433.192 227.102C433.806 227.317 434.471 227.345 435.101 227.183C435.731 227.02 436.3 226.675 436.734 226.19C437.295 225.422 437.763 224.59 438.128 223.712L439.607 220.859C439.705 220.61 439.829 220.371 439.976 220.146C440.087 220.014 439.889 220.149 439.927 220.114C439.947 220.095 439.99 220.096 440.014 220.08C440.136 220.02 440.264 219.971 440.396 219.934C441.763 219.413 443.137 218.908 444.517 218.419C449.609 216.604 454.763 214.931 459.999 213.576C462.693 212.853 465.425 212.282 468.183 211.864C471.755 211.355 475.381 211.414 478.969 211.066C482.832 210.692 486.818 209.91 490.131 207.783C492.87 206.118 494.98 203.592 496.131 200.601C496.63 199.175 496.801 197.655 496.632 196.154C496.201 192.758 493.983 189.89 491.205 188.007Z" fill="white"/>
<path d="M484.664 191.831L433.766 201.218C433.62 201.246 433.471 201.245 433.326 201.215C433.181 201.185 433.043 201.126 432.92 201.043C432.798 200.959 432.693 200.852 432.612 200.728C432.531 200.604 432.475 200.465 432.448 200.32C432.421 200.174 432.422 200.025 432.453 199.88C432.484 199.735 432.543 199.597 432.626 199.475C432.71 199.353 432.817 199.248 432.942 199.168C433.066 199.087 433.205 199.032 433.351 199.005L433.357 199.004L484.255 189.616C484.4 189.589 484.55 189.591 484.694 189.622C484.839 189.653 484.976 189.712 485.098 189.796C485.22 189.88 485.324 189.987 485.404 190.111C485.485 190.235 485.54 190.374 485.567 190.519C485.594 190.665 485.591 190.814 485.561 190.959C485.53 191.103 485.471 191.24 485.387 191.362C485.303 191.484 485.196 191.588 485.072 191.668C484.948 191.749 484.809 191.804 484.664 191.831Z" fill="#E6E6E6"/>
<path d="M485.918 198.629L435.02 208.016C434.874 208.044 434.725 208.042 434.58 208.012C434.435 207.982 434.297 207.924 434.174 207.84C434.052 207.757 433.947 207.65 433.866 207.526C433.785 207.402 433.729 207.263 433.702 207.117C433.675 206.972 433.677 206.822 433.707 206.677C433.738 206.532 433.797 206.395 433.88 206.273C433.964 206.15 434.071 206.046 434.196 205.965C434.32 205.885 434.459 205.829 434.605 205.802L434.611 205.801L485.509 196.414C485.654 196.387 485.804 196.389 485.948 196.42C486.093 196.451 486.23 196.51 486.352 196.594C486.474 196.677 486.578 196.785 486.658 196.909C486.739 197.033 486.794 197.171 486.821 197.317C486.847 197.462 486.845 197.612 486.815 197.756C486.784 197.901 486.725 198.038 486.641 198.16C486.557 198.282 486.45 198.386 486.326 198.466C486.202 198.547 486.063 198.602 485.918 198.629Z" fill="#E6E6E6"/>
<path d="M442.205 213.719L436.273 214.813C435.98 214.866 435.678 214.801 435.433 214.631C435.187 214.462 435.02 214.202 434.965 213.909C434.911 213.616 434.976 213.314 435.144 213.068C435.313 212.822 435.572 212.654 435.865 212.598L441.796 211.504C442.089 211.451 442.392 211.516 442.637 211.686C442.883 211.855 443.051 212.115 443.105 212.408C443.159 212.701 443.094 213.004 442.926 213.25C442.757 213.496 442.498 213.664 442.205 213.719Z" fill="#E6E6E6"/>
<path d="M437.908 241.978C440.507 241.499 442.226 239.003 441.747 236.403C441.267 233.804 438.771 232.085 436.172 232.564C433.572 233.044 431.853 235.54 432.333 238.14C432.812 240.739 435.308 242.458 437.908 241.978Z" fill="#D1D3D4"/>
<path d="M174.502 137.653H131.028C129.01 137.651 127.075 136.848 125.648 135.421C124.221 133.994 123.418 132.059 123.416 130.041V101.389C123.418 99.3707 124.221 97.4359 125.648 96.0088C127.075 94.5818 129.01 93.779 131.028 93.7766H174.502C176.521 93.779 178.455 94.5817 179.883 96.0088C181.31 97.4359 182.112 99.3707 182.115 101.389V130.041C182.112 132.059 181.31 133.994 179.883 135.421C178.455 136.848 176.521 137.651 174.502 137.653Z" fill="#E6E6E6"/>
<path d="M169.725 136.11H131.889C130.133 136.108 128.449 135.409 127.207 134.167C125.965 132.925 125.266 131.241 125.264 129.485V104.548C125.266 102.792 125.965 101.108 127.207 99.8658C128.449 98.6238 130.133 97.9252 131.889 97.9231H169.725C171.482 97.9252 173.166 98.6238 174.408 99.8658C175.65 101.108 176.348 102.792 176.35 104.548V129.485C176.348 131.241 175.65 132.925 174.408 134.167C173.166 135.409 171.482 136.108 169.725 136.11Z" fill="white"/>
<path d="M180.626 163.467H124.843C124.498 163.466 124.168 163.329 123.924 163.085C123.681 162.841 123.544 162.51 123.544 162.165C123.544 161.821 123.681 161.49 123.924 161.246C124.168 161.002 124.498 160.865 124.843 160.864H180.626C180.971 160.865 181.301 161.002 181.544 161.246C181.788 161.49 181.925 161.821 181.925 162.165C181.925 162.51 181.788 162.841 181.544 163.085C181.301 163.329 180.971 163.466 180.626 163.467Z" fill="#E6E6E6"/>
<path d="M180.626 156.029H124.843C124.498 156.028 124.168 155.891 123.924 155.647C123.681 155.403 123.544 155.072 123.544 154.728C123.544 154.383 123.681 154.052 123.924 153.808C124.168 153.564 124.498 153.427 124.843 153.426H180.626C180.971 153.427 181.301 153.564 181.544 153.808C181.788 154.052 181.925 154.383 181.925 154.728C181.925 155.072 181.788 155.403 181.544 155.647C181.301 155.891 180.971 156.028 180.626 156.029Z" fill="#E6E6E6"/>
<path d="M180.626 170.905H124.843C124.498 170.905 124.167 170.768 123.922 170.524C123.678 170.279 123.541 169.948 123.541 169.603C123.541 169.258 123.678 168.927 123.922 168.683C124.167 168.439 124.498 168.302 124.843 168.302H180.626C180.971 168.302 181.302 168.439 181.546 168.683C181.79 168.927 181.928 169.258 181.928 169.603C181.928 169.948 181.79 170.279 181.546 170.524C181.302 170.768 180.971 170.905 180.626 170.905Z" fill="#E6E6E6"/>
<path d="M180.626 178.342H124.843C124.498 178.342 124.167 178.205 123.922 177.961C123.678 177.717 123.541 177.386 123.541 177.041C123.541 176.696 123.678 176.365 123.922 176.121C124.167 175.876 124.498 175.739 124.843 175.739H180.626C180.971 175.739 181.302 175.876 181.546 176.121C181.79 176.365 181.928 176.696 181.928 177.041C181.928 177.386 181.79 177.717 181.546 177.961C181.302 178.205 180.971 178.342 180.626 178.342Z" fill="#E6E6E6"/>
<path d="M180.626 185.78H124.843C124.498 185.78 124.167 185.643 123.922 185.399C123.678 185.155 123.541 184.824 123.541 184.479C123.541 184.133 123.678 183.802 123.922 183.558C124.167 183.314 124.498 183.177 124.843 183.177H180.626C180.971 183.177 181.302 183.314 181.546 183.558C181.79 183.802 181.928 184.133 181.928 184.479C181.928 184.824 181.79 185.155 181.546 185.399C181.302 185.643 180.971 185.78 180.626 185.78Z" fill="#E6E6E6"/>
<path d="M180.626 193.218H124.843C124.498 193.217 124.168 193.08 123.924 192.836C123.681 192.592 123.544 192.261 123.544 191.916C123.544 191.572 123.681 191.241 123.924 190.997C124.168 190.753 124.498 190.616 124.843 190.615H180.626C180.971 190.616 181.301 190.753 181.544 190.997C181.788 191.241 181.925 191.572 181.925 191.916C181.925 192.261 181.788 192.592 181.544 192.836C181.301 193.08 180.971 193.217 180.626 193.218Z" fill="#E6E6E6"/>
<path d="M149.946 176.16H151.329V229.438H51.2932V228.055H149.946V176.16Z" fill="#3F3D56"/>
<path d="M8.98995 238.187H45.6413C48.0256 238.187 50.3122 237.24 51.9982 235.554C53.6841 233.868 54.6313 231.581 54.6313 229.197C54.6313 226.813 53.6841 224.526 51.9982 222.84C50.3122 221.154 48.0256 220.207 45.6413 220.207H8.98995C6.60567 220.207 4.31904 221.154 2.6331 222.84C0.947157 224.526 0 226.813 0 229.197C0 231.581 0.947157 233.868 2.6331 235.554C4.31904 237.24 6.60567 238.187 8.98995 238.187Z" fill="#FFCC00"/>
<path d="M151.6 180.175C156.163 180.175 159.861 176.476 159.861 171.914C159.861 167.351 156.163 163.653 151.6 163.653C147.038 163.653 143.339 167.351 143.339 171.914C143.339 176.476 147.038 180.175 151.6 180.175Z" fill="#FFCC00"/>
<path d="M194.299 174.209C206.427 176.787 203.342 177.29 215.471 179.868L225.915 182.088C227.221 182.365 227.579 180.322 226.272 180.044C214.143 177.466 217.229 176.963 205.1 174.385L194.656 172.166C193.35 171.888 192.992 173.932 194.299 174.209Z" fill="#F2F2F2"/>
<path d="M222.234 168.178L236.038 184.472C236.541 184.96 236.961 185.526 237.281 186.149C237.544 186.851 236.978 187.143 236.388 187.372C234.689 187.925 232.958 188.373 231.205 188.714L220.872 191.306C219.575 191.631 220.279 193.584 221.564 193.262L230.563 191.004L235.063 189.876C236.337 189.556 237.82 189.314 238.75 188.291C240.704 186.141 238.092 183.704 236.749 182.118L230.738 175.022L223.947 167.006C223.091 165.996 221.372 167.16 222.234 168.178Z" fill="#F2F2F2"/>
<path d="M266.001 239.207C276.611 239.207 285.211 230.606 285.211 219.996C285.211 209.386 276.611 200.785 266.001 200.785C255.391 200.785 246.79 209.386 246.79 219.996C246.79 230.606 255.391 239.207 266.001 239.207Z" fill="#E6E6E6"/>
<path d="M264.128 236.757C272.194 236.757 278.733 230.219 278.733 222.153C278.733 214.087 272.194 207.548 264.128 207.548C256.062 207.548 249.523 214.087 249.523 222.153C249.523 230.219 256.062 236.757 264.128 236.757Z" fill="white"/>
<path d="M261.508 232.151C261.176 232.151 260.849 232.074 260.552 231.926C260.255 231.777 259.997 231.562 259.798 231.296L254.557 224.308C254.389 224.084 254.266 223.829 254.196 223.557C254.126 223.285 254.111 223.002 254.15 222.724C254.19 222.446 254.284 222.179 254.427 221.938C254.57 221.696 254.759 221.485 254.983 221.317C255.207 221.148 255.463 221.025 255.735 220.956C256.007 220.886 256.289 220.87 256.567 220.91C256.845 220.949 257.112 221.043 257.354 221.186C257.595 221.329 257.806 221.518 257.975 221.742L257.976 221.744L261.405 226.316L270.212 213.106C270.367 212.872 270.567 212.671 270.8 212.515C271.034 212.358 271.295 212.249 271.571 212.194C271.846 212.139 272.13 212.138 272.405 212.193C272.681 212.247 272.943 212.355 273.177 212.511C273.41 212.667 273.611 212.867 273.767 213.101C273.923 213.334 274.032 213.596 274.087 213.871C274.142 214.147 274.142 214.43 274.087 214.706C274.032 214.981 273.924 215.243 273.768 215.477L263.286 231.2C263.096 231.484 262.841 231.719 262.542 231.884C262.243 232.05 261.909 232.141 261.567 232.151C261.547 232.151 261.527 232.151 261.508 232.151Z" fill="#E6E6E6"/>
<path d="M445.384 239.786C446.002 239.422 446.533 238.928 446.94 238.336C447.346 237.745 447.619 237.072 447.737 236.364C447.855 235.656 447.817 234.931 447.624 234.24C447.432 233.549 447.091 232.908 446.624 232.363L462.049 205.408L452.999 205.9L439.404 232.02C438.541 232.865 438.017 233.997 437.932 235.202C437.847 236.408 438.208 237.602 438.945 238.559C439.682 239.516 440.744 240.17 441.931 240.396C443.118 240.622 444.346 240.405 445.384 239.786Z" fill="#FFB8B8"/>
<path d="M428.009 145.305C428.009 145.305 444.346 140.053 448.548 152.658C452.75 165.263 466.874 199.401 466.874 199.401L451.699 230.388L444.872 223.035L452.169 201.501L431.16 169.989L428.009 145.305Z" fill="#3F3D56"/>
<path d="M452.22 227.223C451.728 226.391 451.104 225.644 450.373 225.013L445.16 219.996L444.87 220.642C444.336 221.484 443.985 222.429 443.842 223.415C443.698 224.401 443.764 225.407 444.037 226.366C444.309 227.325 444.78 228.215 445.421 228.979C446.061 229.743 446.856 230.363 447.752 230.799C448.518 231.2 449.381 231.379 450.243 231.313C450.673 231.276 451.087 231.137 451.452 230.909C451.818 230.681 452.124 230.369 452.346 230C452.549 229.561 452.644 229.079 452.622 228.596C452.6 228.113 452.462 227.642 452.22 227.223Z" fill="#E6E6E6"/>
<path d="M265.834 245.841H264.451V299.119H311.238V297.736H265.834V245.841Z" fill="#3F3D56"/>
<path d="M362.531 298.877C362.529 296.494 361.581 294.208 359.896 292.523C358.21 290.838 355.925 289.89 353.541 289.887H316.89C314.506 289.887 312.219 290.835 310.533 292.521C308.847 294.206 307.9 296.493 307.9 298.877C307.9 301.262 308.847 303.548 310.533 305.234C312.219 306.92 314.506 307.867 316.89 307.867H353.541C355.925 307.865 358.21 306.917 359.896 305.232C361.581 303.546 362.529 301.261 362.531 298.877Z" fill="#FFCC00"/>
<path d="M264.18 249.855C268.742 249.855 272.441 246.157 272.441 241.594C272.441 237.032 268.742 233.333 264.18 233.333C259.617 233.333 255.919 237.032 255.919 241.594C255.919 246.157 259.617 249.855 264.18 249.855Z" fill="#FFCC00"/>
</g>
<defs>
<clipPath id="clip0_354_2238">
<rect width="520" height="384.402" fill="white" transform="translate(0 0.298828)"/>
</clipPath>
</defs>
</svg>
