<svg width="36" height="36" viewBox="0 0 36 36" fill="none" xmlns="http://www.w3.org/2000/svg">
<path d="M20.5139 10.4328C21.1276 10.3356 21.5463 9.75932 21.4491 9.14565C21.3519 8.53198 20.7756 8.11329 20.1619 8.21049C19.5483 8.30768 19.1296 8.88395 19.2268 9.49762C19.324 10.1113 19.9002 10.53 20.5139 10.4328Z" fill="#FBFBFB"/>
<path d="M9.05069 9.96963C8.7559 10.0163 8.49173 10.1782 8.31631 10.4197C8.14088 10.6611 8.06856 10.9624 8.11525 11.2572C8.16195 11.552 8.32383 11.8161 8.5653 11.9916C8.80676 12.167 9.10802 12.2393 9.40281 12.1926L9.05069 9.96963ZM13.8466 11.4884C14.1414 11.4417 14.4055 11.2798 14.5809 11.0383C14.7564 10.7969 14.8287 10.4956 14.782 10.2008C14.7353 9.90603 14.5734 9.64186 14.332 9.46644C14.0905 9.29101 13.7892 9.21868 13.4944 9.26538L13.8466 11.4884ZM10.1059 16.6364C9.81115 16.6831 9.54699 16.845 9.37156 17.0864C9.19613 17.3279 9.12381 17.6292 9.1705 17.9239C9.2172 18.2187 9.37908 18.4829 9.62055 18.6583C9.86201 18.8338 10.1633 18.9061 10.4581 18.8594L10.1059 16.6364ZM21.5697 17.0988C21.7178 17.0781 21.8603 17.0282 21.9888 16.9519C22.1174 16.8755 22.2294 16.7743 22.3184 16.6542C22.4074 16.5341 22.4716 16.3974 22.5072 16.2522C22.5427 16.1069 22.549 15.9561 22.5256 15.8084C22.5022 15.6608 22.4496 15.5192 22.3709 15.3921C22.2921 15.265 22.1889 15.1549 22.0671 15.0681C21.9453 14.9814 21.8074 14.9198 21.6616 14.887C21.5157 14.8541 21.3648 14.8507 21.2176 14.8769L21.5697 17.0988ZM10.8113 21.0824C10.5165 21.1291 10.2524 21.291 10.0769 21.5324C9.9015 21.7739 9.82918 22.0752 9.87588 22.3699C9.92257 22.6647 10.0845 22.9289 10.3259 23.1043C10.5674 23.2798 10.8687 23.3521 11.1634 23.3054L10.8113 21.0824ZM20.0521 21.8969C20.2006 21.8768 20.3436 21.8273 20.4727 21.7512C20.6019 21.6751 20.7145 21.574 20.804 21.4538C20.8935 21.3336 20.9581 21.1967 20.9939 21.0512C21.0298 20.9057 21.0362 20.7545 21.0128 20.6064C20.9894 20.4584 20.9367 20.3165 20.8577 20.1892C20.7788 20.0618 20.6751 19.9515 20.5529 19.8647C20.4307 19.7779 20.2924 19.7165 20.1461 19.6839C19.9999 19.6513 19.8485 19.6483 19.7011 19.675L20.0532 21.8969H20.0521ZM27.2453 24.1728L26.1338 24.3494L27.2453 24.1739V24.1728ZM29.2501 11.2499V30.3749H31.5001V11.2499H29.2501ZM28.1251 31.4999H12.3751V33.7499H28.1251V31.4999ZM12.3751 31.4999C12.0767 31.4999 11.7905 31.3814 11.5796 31.1704C11.3686 30.9594 11.2501 30.6732 11.2501 30.3749H9.00006C9.00006 31.27 9.35564 32.1284 9.98858 32.7614C10.6215 33.3943 11.48 33.7499 12.3751 33.7499V31.4999ZM29.2501 30.3749C29.2501 30.6732 29.1315 30.9594 28.9206 31.1704C28.7096 31.3814 28.4234 31.4999 28.1251 31.4999V33.7499C29.0202 33.7499 29.8786 33.3943 30.5115 32.7614C31.1445 32.1284 31.5001 31.27 31.5001 30.3749H29.2501ZM28.1251 10.1249C28.4234 10.1249 28.7096 10.2434 28.9206 10.4544C29.1315 10.6654 29.2501 10.9515 29.2501 11.2499H31.5001C31.5001 10.3548 31.1445 9.49633 30.5115 8.86339C29.8786 8.23046 29.0202 7.87488 28.1251 7.87488V10.1249ZM11.2501 30.3749V28.1249H9.00006V30.3749H11.2501ZM28.1251 7.87488H24.7501V10.1249H28.1251V7.87488ZM9.40281 12.1926L13.8466 11.4884L13.4944 9.26538L9.05069 9.96963L9.40281 12.1926ZM10.4581 18.8594L21.5697 17.0988L21.2176 14.8769L10.1059 16.6364L10.4581 18.8594ZM11.1623 23.3031L20.0509 21.8958L19.6999 19.6739L10.8102 21.0813L11.1623 23.3031ZM6.30006 6.98838L21.8566 4.52575L21.5044 2.30388L5.94794 4.76763L6.30006 6.98838ZM23.1436 5.46063L26.1361 24.3494L28.3579 23.9984L25.3654 5.10963L23.1436 5.46063ZM25.2001 25.6364L9.64356 28.1001L9.99569 30.322L25.5511 27.8583L25.2001 25.6364ZM8.35656 27.1653L5.36406 8.27538L3.14219 8.6275L6.13469 27.5163L8.35656 27.1653ZM9.64356 28.1001C9.34893 28.1468 9.04784 28.0745 8.80649 27.8992C8.56515 27.7239 8.40331 27.4599 8.35656 27.1653L6.13469 27.5163C6.27492 28.4001 6.76044 29.1932 7.48448 29.7191C8.20851 30.2451 9.11179 30.4619 9.99569 30.322L9.64356 28.1001ZM26.1361 24.3494C26.1591 24.4953 26.1532 24.6444 26.1187 24.7881C26.0841 24.9318 26.0216 25.0673 25.9347 25.1868C25.8478 25.3063 25.7382 25.4075 25.6121 25.4847C25.4861 25.5618 25.346 25.6134 25.2001 25.6364L25.5511 27.8583C26.4351 27.7183 27.2285 27.2329 27.7547 26.5088C28.2808 25.7847 28.4978 24.8813 28.3579 23.9973L26.1361 24.3494ZM21.8554 4.52463C22.1501 4.47799 22.4512 4.55027 22.6925 4.72559C22.9339 4.9009 23.0957 5.16489 23.1424 5.4595L25.3643 5.10738C25.2241 4.22353 24.7386 3.43157 24.0145 2.90563C23.2905 2.37968 22.3883 2.16283 21.5044 2.30275L21.8554 4.52463ZM5.94794 4.76763C5.5101 4.8368 5.09018 4.99042 4.71215 5.2219C4.33412 5.45338 4.0054 5.75706 3.74475 6.1156C3.4841 6.47413 3.29663 6.88051 3.19305 7.3115C3.08947 7.7425 3.07293 8.18968 3.14219 8.6275L5.36406 8.27538C5.34098 8.12941 5.34688 7.98032 5.38143 7.83664C5.41598 7.69295 5.4785 7.55748 5.56543 7.43796C5.65235 7.31844 5.76197 7.21722 5.88802 7.14008C6.01407 7.06294 6.15408 7.01139 6.30006 6.98838L5.94794 4.76763Z" fill="#FBFBFB"/>
</svg>
